<mxfile host="app.diagrams.net" agent="Mozilla/5.0 (Windows NT 10.0; Win64; x64) AppleWebKit/537.36 (KHTML, like Gecko) Chrome/131.0.0.0 Safari/537.36 Edg/131.0.0.0" version="24.8.6">
  <diagram name="Trang-1" id="qUlIzvEm757BAhzmKDJw">
    <mxGraphModel dx="1737" dy="885" grid="1" gridSize="10" guides="1" tooltips="1" connect="1" arrows="1" fold="1" page="1" pageScale="1" pageWidth="827" pageHeight="1169" math="0" shadow="0">
      <root>
        <mxCell id="0" />
        <mxCell id="1" parent="0" />
        <mxCell id="8_ut2QSLeftMOlqq8Ha9-3" value="" style="edgeStyle=orthogonalEdgeStyle;rounded=0;orthogonalLoop=1;jettySize=auto;html=1;" edge="1" parent="1" source="8_ut2QSLeftMOlqq8Ha9-1" target="8_ut2QSLeftMOlqq8Ha9-2">
          <mxGeometry relative="1" as="geometry" />
        </mxCell>
        <mxCell id="8_ut2QSLeftMOlqq8Ha9-1" value="&lt;font style=&quot;font-size: 20px;&quot;&gt;Start&lt;/font&gt;" style="ellipse;whiteSpace=wrap;html=1;fillColor=#dae8fc;strokeColor=#6c8ebf;" vertex="1" parent="1">
          <mxGeometry x="320" y="40" width="120" height="80" as="geometry" />
        </mxCell>
        <mxCell id="8_ut2QSLeftMOlqq8Ha9-5" value="" style="edgeStyle=orthogonalEdgeStyle;rounded=0;orthogonalLoop=1;jettySize=auto;html=1;" edge="1" parent="1" source="8_ut2QSLeftMOlqq8Ha9-2" target="8_ut2QSLeftMOlqq8Ha9-4">
          <mxGeometry relative="1" as="geometry" />
        </mxCell>
        <mxCell id="8_ut2QSLeftMOlqq8Ha9-2" value="Read button, clk, reset" style="shape=parallelogram;perimeter=parallelogramPerimeter;whiteSpace=wrap;html=1;fixedSize=1;fillColor=#dae8fc;strokeColor=#6c8ebf;" vertex="1" parent="1">
          <mxGeometry x="300" y="190" width="160" height="80" as="geometry" />
        </mxCell>
        <mxCell id="8_ut2QSLeftMOlqq8Ha9-6" style="edgeStyle=orthogonalEdgeStyle;rounded=0;orthogonalLoop=1;jettySize=auto;html=1;entryX=1;entryY=0.5;entryDx=0;entryDy=0;" edge="1" parent="1" source="8_ut2QSLeftMOlqq8Ha9-4" target="8_ut2QSLeftMOlqq8Ha9-1">
          <mxGeometry relative="1" as="geometry">
            <Array as="points">
              <mxPoint x="520" y="400" />
              <mxPoint x="520" y="80" />
            </Array>
          </mxGeometry>
        </mxCell>
        <mxCell id="8_ut2QSLeftMOlqq8Ha9-14" style="edgeStyle=orthogonalEdgeStyle;rounded=0;orthogonalLoop=1;jettySize=auto;html=1;entryX=0.5;entryY=0;entryDx=0;entryDy=0;" edge="1" parent="1" source="8_ut2QSLeftMOlqq8Ha9-4" target="8_ut2QSLeftMOlqq8Ha9-13">
          <mxGeometry relative="1" as="geometry" />
        </mxCell>
        <mxCell id="8_ut2QSLeftMOlqq8Ha9-4" value="Reset?" style="rhombus;whiteSpace=wrap;html=1;fillColor=#dae8fc;strokeColor=#6c8ebf;" vertex="1" parent="1">
          <mxGeometry x="320" y="340" width="120" height="120" as="geometry" />
        </mxCell>
        <mxCell id="8_ut2QSLeftMOlqq8Ha9-7" value="Yes" style="text;html=1;align=center;verticalAlign=middle;resizable=0;points=[];autosize=1;strokeColor=none;fillColor=none;" vertex="1" parent="1">
          <mxGeometry x="460" y="370" width="40" height="30" as="geometry" />
        </mxCell>
        <mxCell id="8_ut2QSLeftMOlqq8Ha9-10" value="No" style="text;html=1;align=center;verticalAlign=middle;resizable=0;points=[];autosize=1;strokeColor=none;fillColor=none;" vertex="1" parent="1">
          <mxGeometry x="380" y="480" width="40" height="30" as="geometry" />
        </mxCell>
        <mxCell id="8_ut2QSLeftMOlqq8Ha9-35" style="edgeStyle=orthogonalEdgeStyle;rounded=0;orthogonalLoop=1;jettySize=auto;html=1;entryX=0;entryY=0.5;entryDx=0;entryDy=0;" edge="1" parent="1" source="8_ut2QSLeftMOlqq8Ha9-13" target="8_ut2QSLeftMOlqq8Ha9-34">
          <mxGeometry relative="1" as="geometry" />
        </mxCell>
        <mxCell id="8_ut2QSLeftMOlqq8Ha9-13" value="Button == pressed?" style="rhombus;whiteSpace=wrap;html=1;fillColor=#dae8fc;strokeColor=#6c8ebf;" vertex="1" parent="1">
          <mxGeometry x="320" y="530" width="120" height="120" as="geometry" />
        </mxCell>
        <mxCell id="8_ut2QSLeftMOlqq8Ha9-40" style="edgeStyle=orthogonalEdgeStyle;rounded=0;orthogonalLoop=1;jettySize=auto;html=1;entryX=0.5;entryY=0;entryDx=0;entryDy=0;" edge="1" parent="1" source="8_ut2QSLeftMOlqq8Ha9-34" target="8_ut2QSLeftMOlqq8Ha9-39">
          <mxGeometry relative="1" as="geometry" />
        </mxCell>
        <mxCell id="8_ut2QSLeftMOlqq8Ha9-34" value="Chang Mode, Next setting" style="rounded=1;whiteSpace=wrap;html=1;fillColor=#dae8fc;strokeColor=#6c8ebf;" vertex="1" parent="1">
          <mxGeometry x="520" y="550" width="140" height="80" as="geometry" />
        </mxCell>
        <mxCell id="8_ut2QSLeftMOlqq8Ha9-36" value="Yes" style="text;html=1;align=center;verticalAlign=middle;resizable=0;points=[];autosize=1;strokeColor=none;fillColor=none;" vertex="1" parent="1">
          <mxGeometry x="460" y="555" width="40" height="30" as="geometry" />
        </mxCell>
        <mxCell id="8_ut2QSLeftMOlqq8Ha9-37" style="edgeStyle=orthogonalEdgeStyle;rounded=0;orthogonalLoop=1;jettySize=auto;html=1;entryX=0;entryY=0.5;entryDx=0;entryDy=0;exitX=0.5;exitY=1;exitDx=0;exitDy=0;" edge="1" parent="1" source="8_ut2QSLeftMOlqq8Ha9-13" target="8_ut2QSLeftMOlqq8Ha9-13">
          <mxGeometry relative="1" as="geometry">
            <Array as="points">
              <mxPoint x="380" y="680" />
              <mxPoint x="300" y="680" />
              <mxPoint x="300" y="590" />
            </Array>
          </mxGeometry>
        </mxCell>
        <mxCell id="8_ut2QSLeftMOlqq8Ha9-38" value="No" style="text;html=1;align=center;verticalAlign=middle;resizable=0;points=[];autosize=1;strokeColor=none;fillColor=none;" vertex="1" parent="1">
          <mxGeometry x="320" y="650" width="40" height="30" as="geometry" />
        </mxCell>
        <mxCell id="8_ut2QSLeftMOlqq8Ha9-42" style="edgeStyle=orthogonalEdgeStyle;rounded=0;orthogonalLoop=1;jettySize=auto;html=1;entryX=0;entryY=0.75;entryDx=0;entryDy=0;exitX=0;exitY=0.5;exitDx=0;exitDy=0;" edge="1" parent="1" source="8_ut2QSLeftMOlqq8Ha9-39" target="8_ut2QSLeftMOlqq8Ha9-34">
          <mxGeometry relative="1" as="geometry" />
        </mxCell>
        <mxCell id="8_ut2QSLeftMOlqq8Ha9-50" style="edgeStyle=orthogonalEdgeStyle;rounded=0;orthogonalLoop=1;jettySize=auto;html=1;entryX=0;entryY=0.5;entryDx=0;entryDy=0;" edge="1" parent="1" source="8_ut2QSLeftMOlqq8Ha9-39" target="8_ut2QSLeftMOlqq8Ha9-45">
          <mxGeometry relative="1" as="geometry" />
        </mxCell>
        <mxCell id="8_ut2QSLeftMOlqq8Ha9-39" value="Button == pressed?" style="rhombus;whiteSpace=wrap;html=1;fillColor=#dae8fc;strokeColor=#6c8ebf;" vertex="1" parent="1">
          <mxGeometry x="530" y="690" width="120" height="120" as="geometry" />
        </mxCell>
        <mxCell id="8_ut2QSLeftMOlqq8Ha9-43" value="No" style="text;html=1;align=center;verticalAlign=middle;resizable=0;points=[];autosize=1;strokeColor=none;fillColor=none;" vertex="1" parent="1">
          <mxGeometry x="500" y="670" width="40" height="30" as="geometry" />
        </mxCell>
        <mxCell id="8_ut2QSLeftMOlqq8Ha9-58" style="edgeStyle=orthogonalEdgeStyle;rounded=0;orthogonalLoop=1;jettySize=auto;html=1;entryX=0.5;entryY=0;entryDx=0;entryDy=0;" edge="1" parent="1" source="8_ut2QSLeftMOlqq8Ha9-45" target="8_ut2QSLeftMOlqq8Ha9-57">
          <mxGeometry relative="1" as="geometry" />
        </mxCell>
        <mxCell id="8_ut2QSLeftMOlqq8Ha9-45" value="Done setting, play game" style="rounded=1;whiteSpace=wrap;html=1;fillColor=#dae8fc;strokeColor=#6c8ebf;" vertex="1" parent="1">
          <mxGeometry x="770" y="555" width="140" height="80" as="geometry" />
        </mxCell>
        <mxCell id="8_ut2QSLeftMOlqq8Ha9-47" value="Yes" style="text;html=1;align=center;verticalAlign=middle;resizable=0;points=[];autosize=1;strokeColor=none;fillColor=none;" vertex="1" parent="1">
          <mxGeometry x="670" y="670" width="40" height="30" as="geometry" />
        </mxCell>
        <mxCell id="8_ut2QSLeftMOlqq8Ha9-64" style="edgeStyle=orthogonalEdgeStyle;rounded=0;orthogonalLoop=1;jettySize=auto;html=1;exitX=0;exitY=0.5;exitDx=0;exitDy=0;entryX=0;entryY=0.75;entryDx=0;entryDy=0;" edge="1" parent="1" source="8_ut2QSLeftMOlqq8Ha9-57" target="8_ut2QSLeftMOlqq8Ha9-45">
          <mxGeometry relative="1" as="geometry" />
        </mxCell>
        <mxCell id="8_ut2QSLeftMOlqq8Ha9-68" style="edgeStyle=orthogonalEdgeStyle;rounded=0;orthogonalLoop=1;jettySize=auto;html=1;entryX=0;entryY=0.5;entryDx=0;entryDy=0;" edge="1" parent="1" source="8_ut2QSLeftMOlqq8Ha9-57" target="8_ut2QSLeftMOlqq8Ha9-67">
          <mxGeometry relative="1" as="geometry" />
        </mxCell>
        <mxCell id="8_ut2QSLeftMOlqq8Ha9-57" value="Result == win?" style="rhombus;whiteSpace=wrap;html=1;fillColor=#dae8fc;strokeColor=#6c8ebf;" vertex="1" parent="1">
          <mxGeometry x="780" y="690" width="120" height="120" as="geometry" />
        </mxCell>
        <mxCell id="8_ut2QSLeftMOlqq8Ha9-65" value="No" style="text;html=1;align=center;verticalAlign=middle;resizable=0;points=[];autosize=1;strokeColor=none;fillColor=none;" vertex="1" parent="1">
          <mxGeometry x="750" y="670" width="40" height="30" as="geometry" />
        </mxCell>
        <mxCell id="8_ut2QSLeftMOlqq8Ha9-73" style="edgeStyle=orthogonalEdgeStyle;rounded=0;orthogonalLoop=1;jettySize=auto;html=1;entryX=0.5;entryY=0;entryDx=0;entryDy=0;" edge="1" parent="1" source="8_ut2QSLeftMOlqq8Ha9-67" target="8_ut2QSLeftMOlqq8Ha9-72">
          <mxGeometry relative="1" as="geometry" />
        </mxCell>
        <mxCell id="8_ut2QSLeftMOlqq8Ha9-67" value="Win normal game" style="rounded=1;whiteSpace=wrap;html=1;fillColor=#dae8fc;strokeColor=#6c8ebf;" vertex="1" parent="1">
          <mxGeometry x="1010" y="555" width="140" height="80" as="geometry" />
        </mxCell>
        <mxCell id="8_ut2QSLeftMOlqq8Ha9-69" value="Yes" style="text;html=1;align=center;verticalAlign=middle;resizable=0;points=[];autosize=1;strokeColor=none;fillColor=none;" vertex="1" parent="1">
          <mxGeometry x="910" y="670" width="40" height="30" as="geometry" />
        </mxCell>
        <mxCell id="8_ut2QSLeftMOlqq8Ha9-79" style="edgeStyle=orthogonalEdgeStyle;rounded=0;orthogonalLoop=1;jettySize=auto;html=1;entryX=0.5;entryY=1;entryDx=0;entryDy=0;" edge="1" parent="1" source="8_ut2QSLeftMOlqq8Ha9-72" target="8_ut2QSLeftMOlqq8Ha9-76">
          <mxGeometry relative="1" as="geometry">
            <Array as="points">
              <mxPoint x="980" y="750" />
            </Array>
          </mxGeometry>
        </mxCell>
        <mxCell id="8_ut2QSLeftMOlqq8Ha9-82" style="edgeStyle=orthogonalEdgeStyle;rounded=0;orthogonalLoop=1;jettySize=auto;html=1;entryX=0;entryY=0.5;entryDx=0;entryDy=0;" edge="1" parent="1" source="8_ut2QSLeftMOlqq8Ha9-72" target="8_ut2QSLeftMOlqq8Ha9-81">
          <mxGeometry relative="1" as="geometry" />
        </mxCell>
        <mxCell id="8_ut2QSLeftMOlqq8Ha9-72" value="Play special mode?" style="rhombus;whiteSpace=wrap;html=1;fillColor=#dae8fc;strokeColor=#6c8ebf;" vertex="1" parent="1">
          <mxGeometry x="1020" y="690" width="120" height="120" as="geometry" />
        </mxCell>
        <mxCell id="8_ut2QSLeftMOlqq8Ha9-76" value="&lt;span style=&quot;font-size: 20px;&quot;&gt;End&lt;/span&gt;" style="ellipse;whiteSpace=wrap;html=1;fillColor=#f8cecc;strokeColor=#b85450;" vertex="1" parent="1">
          <mxGeometry x="920" y="330" width="120" height="80" as="geometry" />
        </mxCell>
        <mxCell id="8_ut2QSLeftMOlqq8Ha9-78" value="No" style="text;html=1;align=center;verticalAlign=middle;resizable=0;points=[];autosize=1;strokeColor=none;fillColor=none;" vertex="1" parent="1">
          <mxGeometry x="980" y="670" width="40" height="30" as="geometry" />
        </mxCell>
        <mxCell id="8_ut2QSLeftMOlqq8Ha9-84" style="edgeStyle=orthogonalEdgeStyle;rounded=0;orthogonalLoop=1;jettySize=auto;html=1;entryX=0.5;entryY=0;entryDx=0;entryDy=0;" edge="1" parent="1" source="8_ut2QSLeftMOlqq8Ha9-81" target="8_ut2QSLeftMOlqq8Ha9-83">
          <mxGeometry relative="1" as="geometry" />
        </mxCell>
        <mxCell id="8_ut2QSLeftMOlqq8Ha9-81" value="Play special mode" style="rounded=1;whiteSpace=wrap;html=1;fillColor=#dae8fc;strokeColor=#6c8ebf;" vertex="1" parent="1">
          <mxGeometry x="1250" y="555" width="140" height="80" as="geometry" />
        </mxCell>
        <mxCell id="8_ut2QSLeftMOlqq8Ha9-86" style="edgeStyle=orthogonalEdgeStyle;rounded=0;orthogonalLoop=1;jettySize=auto;html=1;entryX=0;entryY=0.5;entryDx=0;entryDy=0;" edge="1" parent="1" source="8_ut2QSLeftMOlqq8Ha9-83" target="8_ut2QSLeftMOlqq8Ha9-85">
          <mxGeometry relative="1" as="geometry" />
        </mxCell>
        <mxCell id="8_ut2QSLeftMOlqq8Ha9-89" style="edgeStyle=orthogonalEdgeStyle;rounded=0;orthogonalLoop=1;jettySize=auto;html=1;entryX=1;entryY=0.5;entryDx=0;entryDy=0;" edge="1" parent="1" source="8_ut2QSLeftMOlqq8Ha9-83" target="8_ut2QSLeftMOlqq8Ha9-76">
          <mxGeometry relative="1" as="geometry">
            <Array as="points">
              <mxPoint x="1220" y="750" />
              <mxPoint x="1220" y="370" />
            </Array>
          </mxGeometry>
        </mxCell>
        <mxCell id="8_ut2QSLeftMOlqq8Ha9-83" value="Result == win?" style="rhombus;whiteSpace=wrap;html=1;fillColor=#dae8fc;strokeColor=#6c8ebf;" vertex="1" parent="1">
          <mxGeometry x="1260" y="690" width="120" height="120" as="geometry" />
        </mxCell>
        <mxCell id="8_ut2QSLeftMOlqq8Ha9-91" style="edgeStyle=orthogonalEdgeStyle;rounded=0;orthogonalLoop=1;jettySize=auto;html=1;entryX=0.5;entryY=0;entryDx=0;entryDy=0;" edge="1" parent="1" source="8_ut2QSLeftMOlqq8Ha9-85" target="8_ut2QSLeftMOlqq8Ha9-76">
          <mxGeometry relative="1" as="geometry">
            <Array as="points">
              <mxPoint x="1560" y="310" />
              <mxPoint x="980" y="310" />
            </Array>
          </mxGeometry>
        </mxCell>
        <mxCell id="8_ut2QSLeftMOlqq8Ha9-85" value="Win normal game" style="rounded=1;whiteSpace=wrap;html=1;fillColor=#dae8fc;strokeColor=#6c8ebf;" vertex="1" parent="1">
          <mxGeometry x="1490" y="555" width="140" height="80" as="geometry" />
        </mxCell>
        <mxCell id="8_ut2QSLeftMOlqq8Ha9-87" value="Yes" style="text;html=1;align=center;verticalAlign=middle;resizable=0;points=[];autosize=1;strokeColor=none;fillColor=none;" vertex="1" parent="1">
          <mxGeometry x="1160" y="670" width="40" height="30" as="geometry" />
        </mxCell>
        <mxCell id="8_ut2QSLeftMOlqq8Ha9-88" value="Yes" style="text;html=1;align=center;verticalAlign=middle;resizable=0;points=[];autosize=1;strokeColor=none;fillColor=none;" vertex="1" parent="1">
          <mxGeometry x="1390" y="670" width="40" height="30" as="geometry" />
        </mxCell>
        <mxCell id="8_ut2QSLeftMOlqq8Ha9-90" value="No" style="text;html=1;align=center;verticalAlign=middle;resizable=0;points=[];autosize=1;strokeColor=none;fillColor=none;" vertex="1" parent="1">
          <mxGeometry x="1220" y="670" width="40" height="30" as="geometry" />
        </mxCell>
      </root>
    </mxGraphModel>
  </diagram>
</mxfile>
